<?xml version="1.0" encoding="utf-8"?>
<!DOCTYPE svg PUBLIC "-//W3C//DTD SVG 1.1//EN" "http://www.w3.org/Graphics/SVG/1.1/DTD/svg11.dtd">
<svg version="1.1" id="Layer_1" xmlns="http://www.w3.org/2000/svg" xmlns:xlink="http://www.w3.org/1999/xlink" x="0px" y="0px"
width="232px" height="232px" viewBox="0 0 232 232" enable-background="new 0 0 232 232" xml:space="preserve">
<rect x="0" y="0" width="232" height="232" fill="rgb(255,255,255)" /><g transform="translate(16,16)"><g transform="translate(64,0) scale(0.08,0.08)"><g transform="" style="fill: white;">
<rect width="100" height="100"/>
</g></g><g transform="translate(72,0) scale(0.08,0.08)"><g transform="" style="fill: white;">
<rect width="100" height="100"/>
</g></g><g transform="translate(112,0) scale(0.08,0.08)"><g transform="" style="fill: white;">
<rect width="100" height="100"/>
</g></g><g transform="translate(120,0) scale(0.08,0.08)"><g transform="" style="fill: white;">
<rect width="100" height="100"/>
</g></g><g transform="translate(128,0) scale(0.08,0.08)"><g transform="" style="fill: white;">
<rect width="100" height="100"/>
</g></g><g transform="translate(64,8) scale(0.08,0.08)"><g transform="" style="fill: white;">
<rect width="100" height="100"/>
</g></g><g transform="translate(96,8) scale(0.08,0.08)"><g transform="" style="fill: white;">
<rect width="100" height="100"/>
</g></g><g transform="translate(120,8) scale(0.08,0.08)"><g transform="" style="fill: white;">
<rect width="100" height="100"/>
</g></g><g transform="translate(72,16) scale(0.08,0.08)"><g transform="" style="fill: white;">
<rect width="100" height="100"/>
</g></g><g transform="translate(96,16) scale(0.08,0.08)"><g transform="" style="fill: white;">
<rect width="100" height="100"/>
</g></g><g transform="translate(112,16) scale(0.08,0.08)"><g transform="" style="fill: white;">
<rect width="100" height="100"/>
</g></g><g transform="translate(64,24) scale(0.08,0.08)"><g transform="" style="fill: white;">
<rect width="100" height="100"/>
</g></g><g transform="translate(72,24) scale(0.08,0.08)"><g transform="" style="fill: white;">
<rect width="100" height="100"/>
</g></g><g transform="translate(80,24) scale(0.08,0.08)"><g transform="" style="fill: white;">
<rect width="100" height="100"/>
</g></g><g transform="translate(120,24) scale(0.08,0.08)"><g transform="" style="fill: white;">
<rect width="100" height="100"/>
</g></g><g transform="translate(128,24) scale(0.08,0.08)"><g transform="" style="fill: white;">
<rect width="100" height="100"/>
</g></g><g transform="translate(64,32) scale(0.08,0.08)"><g transform="" style="fill: white;">
<rect width="100" height="100"/>
</g></g><g transform="translate(96,32) scale(0.08,0.08)"><g transform="" style="fill: white;">
<rect width="100" height="100"/>
</g></g><g transform="translate(128,32) scale(0.08,0.08)"><g transform="" style="fill: white;">
<rect width="100" height="100"/>
</g></g><g transform="translate(64,40) scale(0.08,0.08)"><g transform="" style="fill: white;">
<rect width="100" height="100"/>
</g></g><g transform="translate(72,40) scale(0.08,0.08)"><g transform="" style="fill: white;">
<rect width="100" height="100"/>
</g></g><g transform="translate(80,40) scale(0.08,0.08)"><g transform="" style="fill: white;">
<rect width="100" height="100"/>
</g></g><g transform="translate(88,40) scale(0.08,0.08)"><g transform="" style="fill: white;">
<rect width="100" height="100"/>
</g></g><g transform="translate(96,40) scale(0.08,0.08)"><g transform="" style="fill: white;">
<rect width="100" height="100"/>
</g></g><g transform="translate(104,40) scale(0.08,0.08)"><g transform="" style="fill: white;">
<rect width="100" height="100"/>
</g></g><g transform="translate(64,48) scale(0.08,0.08)"><g transform="" style="fill: white;">
<rect width="100" height="100"/>
</g></g><g transform="translate(80,48) scale(0.08,0.08)"><g transform="" style="fill: white;">
<rect width="100" height="100"/>
</g></g><g transform="translate(96,48) scale(0.08,0.08)"><g transform="" style="fill: white;">
<rect width="100" height="100"/>
</g></g><g transform="translate(112,48) scale(0.08,0.08)"><g transform="" style="fill: white;">
<rect width="100" height="100"/>
</g></g><g transform="translate(128,48) scale(0.08,0.08)"><g transform="" style="fill: white;">
<rect width="100" height="100"/>
</g></g><g transform="translate(72,56) scale(0.08,0.08)"><g transform="" style="fill: white;">
<rect width="100" height="100"/>
</g></g><g transform="translate(80,56) scale(0.08,0.08)"><g transform="" style="fill: white;">
<rect width="100" height="100"/>
</g></g><g transform="translate(88,56) scale(0.08,0.08)"><g transform="" style="fill: white;">
<rect width="100" height="100"/>
</g></g><g transform="translate(96,56) scale(0.08,0.08)"><g transform="" style="fill: white;">
<rect width="100" height="100"/>
</g></g><g transform="translate(104,56) scale(0.08,0.08)"><g transform="" style="fill: white;">
<rect width="100" height="100"/>
</g></g><g transform="translate(112,56) scale(0.08,0.08)"><g transform="" style="fill: white;">
<rect width="100" height="100"/>
</g></g><g transform="translate(120,56) scale(0.08,0.08)"><g transform="" style="fill: white;">
<rect width="100" height="100"/>
</g></g><g transform="translate(24,64) scale(0.08,0.08)"><g transform="" style="fill: white;">
<rect width="100" height="100"/>
</g></g><g transform="translate(48,64) scale(0.08,0.08)"><g transform="" style="fill: white;">
<rect width="100" height="100"/>
</g></g><g transform="translate(72,64) scale(0.08,0.08)"><g transform="" style="fill: white;">
<rect width="100" height="100"/>
</g></g><g transform="translate(80,64) scale(0.08,0.08)"><g transform="" style="fill: white;">
<rect width="100" height="100"/>
</g></g><g transform="translate(128,64) scale(0.08,0.08)"><g transform="" style="fill: white;">
<rect width="100" height="100"/>
</g></g><g transform="translate(152,64) scale(0.08,0.08)"><g transform="" style="fill: white;">
<rect width="100" height="100"/>
</g></g><g transform="translate(160,64) scale(0.08,0.08)"><g transform="" style="fill: white;">
<rect width="100" height="100"/>
</g></g><g transform="translate(168,64) scale(0.08,0.08)"><g transform="" style="fill: white;">
<rect width="100" height="100"/>
</g></g><g transform="translate(184,64) scale(0.08,0.08)"><g transform="" style="fill: white;">
<rect width="100" height="100"/>
</g></g><g transform="translate(192,64) scale(0.08,0.08)"><g transform="" style="fill: white;">
<rect width="100" height="100"/>
</g></g><g transform="translate(0,72) scale(0.08,0.08)"><g transform="" style="fill: white;">
<rect width="100" height="100"/>
</g></g><g transform="translate(24,72) scale(0.08,0.08)"><g transform="" style="fill: white;">
<rect width="100" height="100"/>
</g></g><g transform="translate(40,72) scale(0.08,0.08)"><g transform="" style="fill: white;">
<rect width="100" height="100"/>
</g></g><g transform="translate(64,72) scale(0.08,0.08)"><g transform="" style="fill: white;">
<rect width="100" height="100"/>
</g></g><g transform="translate(80,72) scale(0.08,0.08)"><g transform="" style="fill: white;">
<rect width="100" height="100"/>
</g></g><g transform="translate(88,72) scale(0.08,0.08)"><g transform="" style="fill: white;">
<rect width="100" height="100"/>
</g></g><g transform="translate(112,72) scale(0.08,0.08)"><g transform="" style="fill: white;">
<rect width="100" height="100"/>
</g></g><g transform="translate(128,72) scale(0.08,0.08)"><g transform="" style="fill: white;">
<rect width="100" height="100"/>
</g></g><g transform="translate(136,72) scale(0.08,0.08)"><g transform="" style="fill: white;">
<rect width="100" height="100"/>
</g></g><g transform="translate(168,72) scale(0.08,0.08)"><g transform="" style="fill: white;">
<rect width="100" height="100"/>
</g></g><g transform="translate(184,72) scale(0.08,0.08)"><g transform="" style="fill: white;">
<rect width="100" height="100"/>
</g></g><g transform="translate(16,80) scale(0.08,0.08)"><g transform="" style="fill: white;">
<rect width="100" height="100"/>
</g></g><g transform="translate(40,80) scale(0.08,0.08)"><g transform="" style="fill: white;">
<rect width="100" height="100"/>
</g></g><g transform="translate(48,80) scale(0.08,0.08)"><g transform="" style="fill: white;">
<rect width="100" height="100"/>
</g></g><g transform="translate(56,80) scale(0.08,0.08)"><g transform="" style="fill: white;">
<rect width="100" height="100"/>
</g></g><g transform="translate(80,80) scale(0.08,0.08)"><g transform="" style="fill: white;">
<rect width="100" height="100"/>
</g></g><g transform="translate(128,80) scale(0.08,0.08)"><g transform="" style="fill: white;">
<rect width="100" height="100"/>
</g></g><g transform="translate(136,80) scale(0.08,0.08)"><g transform="" style="fill: white;">
<rect width="100" height="100"/>
</g></g><g transform="translate(144,80) scale(0.08,0.08)"><g transform="" style="fill: white;">
<rect width="100" height="100"/>
</g></g><g transform="translate(152,80) scale(0.08,0.08)"><g transform="" style="fill: white;">
<rect width="100" height="100"/>
</g></g><g transform="translate(168,80) scale(0.08,0.08)"><g transform="" style="fill: white;">
<rect width="100" height="100"/>
</g></g><g transform="translate(184,80) scale(0.08,0.08)"><g transform="" style="fill: white;">
<rect width="100" height="100"/>
</g></g><g transform="translate(192,80) scale(0.08,0.08)"><g transform="" style="fill: white;">
<rect width="100" height="100"/>
</g></g><g transform="translate(8,88) scale(0.08,0.08)"><g transform="" style="fill: white;">
<rect width="100" height="100"/>
</g></g><g transform="translate(16,88) scale(0.08,0.08)"><g transform="" style="fill: white;">
<rect width="100" height="100"/>
</g></g><g transform="translate(24,88) scale(0.08,0.08)"><g transform="" style="fill: white;">
<rect width="100" height="100"/>
</g></g><g transform="translate(32,88) scale(0.08,0.08)"><g transform="" style="fill: white;">
<rect width="100" height="100"/>
</g></g><g transform="translate(40,88) scale(0.08,0.08)"><g transform="" style="fill: white;">
<rect width="100" height="100"/>
</g></g><g transform="translate(56,88) scale(0.08,0.08)"><g transform="" style="fill: white;">
<rect width="100" height="100"/>
</g></g><g transform="translate(80,88) scale(0.08,0.08)"><g transform="" style="fill: white;">
<rect width="100" height="100"/>
</g></g><g transform="translate(88,88) scale(0.08,0.08)"><g transform="" style="fill: white;">
<rect width="100" height="100"/>
</g></g><g transform="translate(104,88) scale(0.08,0.08)"><g transform="" style="fill: white;">
<rect width="100" height="100"/>
</g></g><g transform="translate(112,88) scale(0.08,0.08)"><g transform="" style="fill: white;">
<rect width="100" height="100"/>
</g></g><g transform="translate(128,88) scale(0.08,0.08)"><g transform="" style="fill: white;">
<rect width="100" height="100"/>
</g></g><g transform="translate(16,96) scale(0.08,0.08)"><g transform="" style="fill: white;">
<rect width="100" height="100"/>
</g></g><g transform="translate(24,96) scale(0.08,0.08)"><g transform="" style="fill: white;">
<rect width="100" height="100"/>
</g></g><g transform="translate(48,96) scale(0.08,0.08)"><g transform="" style="fill: white;">
<rect width="100" height="100"/>
</g></g><g transform="translate(56,96) scale(0.08,0.08)"><g transform="" style="fill: white;">
<rect width="100" height="100"/>
</g></g><g transform="translate(64,96) scale(0.08,0.08)"><g transform="" style="fill: white;">
<rect width="100" height="100"/>
</g></g><g transform="translate(72,96) scale(0.08,0.08)"><g transform="" style="fill: white;">
<rect width="100" height="100"/>
</g></g><g transform="translate(88,96) scale(0.08,0.08)"><g transform="" style="fill: white;">
<rect width="100" height="100"/>
</g></g><g transform="translate(128,96) scale(0.08,0.08)"><g transform="" style="fill: white;">
<rect width="100" height="100"/>
</g></g><g transform="translate(144,96) scale(0.08,0.08)"><g transform="" style="fill: white;">
<rect width="100" height="100"/>
</g></g><g transform="translate(160,96) scale(0.08,0.08)"><g transform="" style="fill: white;">
<rect width="100" height="100"/>
</g></g><g transform="translate(176,96) scale(0.08,0.08)"><g transform="" style="fill: white;">
<rect width="100" height="100"/>
</g></g><g transform="translate(184,96) scale(0.08,0.08)"><g transform="" style="fill: white;">
<rect width="100" height="100"/>
</g></g><g transform="translate(8,104) scale(0.08,0.08)"><g transform="" style="fill: white;">
<rect width="100" height="100"/>
</g></g><g transform="translate(32,104) scale(0.08,0.08)"><g transform="" style="fill: white;">
<rect width="100" height="100"/>
</g></g><g transform="translate(56,104) scale(0.08,0.08)"><g transform="" style="fill: white;">
<rect width="100" height="100"/>
</g></g><g transform="translate(64,104) scale(0.08,0.08)"><g transform="" style="fill: white;">
<rect width="100" height="100"/>
</g></g><g transform="translate(72,104) scale(0.08,0.08)"><g transform="" style="fill: white;">
<rect width="100" height="100"/>
</g></g><g transform="translate(88,104) scale(0.08,0.08)"><g transform="" style="fill: white;">
<rect width="100" height="100"/>
</g></g><g transform="translate(96,104) scale(0.08,0.08)"><g transform="" style="fill: white;">
<rect width="100" height="100"/>
</g></g><g transform="translate(120,104) scale(0.08,0.08)"><g transform="" style="fill: white;">
<rect width="100" height="100"/>
</g></g><g transform="translate(128,104) scale(0.08,0.08)"><g transform="" style="fill: white;">
<rect width="100" height="100"/>
</g></g><g transform="translate(136,104) scale(0.08,0.08)"><g transform="" style="fill: white;">
<rect width="100" height="100"/>
</g></g><g transform="translate(144,104) scale(0.08,0.08)"><g transform="" style="fill: white;">
<rect width="100" height="100"/>
</g></g><g transform="translate(152,104) scale(0.08,0.08)"><g transform="" style="fill: white;">
<rect width="100" height="100"/>
</g></g><g transform="translate(176,104) scale(0.08,0.08)"><g transform="" style="fill: white;">
<rect width="100" height="100"/>
</g></g><g transform="translate(184,104) scale(0.08,0.08)"><g transform="" style="fill: white;">
<rect width="100" height="100"/>
</g></g><g transform="translate(0,112) scale(0.08,0.08)"><g transform="" style="fill: white;">
<rect width="100" height="100"/>
</g></g><g transform="translate(16,112) scale(0.08,0.08)"><g transform="" style="fill: white;">
<rect width="100" height="100"/>
</g></g><g transform="translate(32,112) scale(0.08,0.08)"><g transform="" style="fill: white;">
<rect width="100" height="100"/>
</g></g><g transform="translate(40,112) scale(0.08,0.08)"><g transform="" style="fill: white;">
<rect width="100" height="100"/>
</g></g><g transform="translate(48,112) scale(0.08,0.08)"><g transform="" style="fill: white;">
<rect width="100" height="100"/>
</g></g><g transform="translate(56,112) scale(0.08,0.08)"><g transform="" style="fill: white;">
<rect width="100" height="100"/>
</g></g><g transform="translate(80,112) scale(0.08,0.08)"><g transform="" style="fill: white;">
<rect width="100" height="100"/>
</g></g><g transform="translate(96,112) scale(0.08,0.08)"><g transform="" style="fill: white;">
<rect width="100" height="100"/>
</g></g><g transform="translate(104,112) scale(0.08,0.08)"><g transform="" style="fill: white;">
<rect width="100" height="100"/>
</g></g><g transform="translate(152,112) scale(0.08,0.08)"><g transform="" style="fill: white;">
<rect width="100" height="100"/>
</g></g><g transform="translate(168,112) scale(0.08,0.08)"><g transform="" style="fill: white;">
<rect width="100" height="100"/>
</g></g><g transform="translate(192,112) scale(0.08,0.08)"><g transform="" style="fill: white;">
<rect width="100" height="100"/>
</g></g><g transform="translate(8,120) scale(0.08,0.08)"><g transform="" style="fill: white;">
<rect width="100" height="100"/>
</g></g><g transform="translate(24,120) scale(0.08,0.08)"><g transform="" style="fill: white;">
<rect width="100" height="100"/>
</g></g><g transform="translate(56,120) scale(0.08,0.08)"><g transform="" style="fill: white;">
<rect width="100" height="100"/>
</g></g><g transform="translate(64,120) scale(0.08,0.08)"><g transform="" style="fill: white;">
<rect width="100" height="100"/>
</g></g><g transform="translate(80,120) scale(0.08,0.08)"><g transform="" style="fill: white;">
<rect width="100" height="100"/>
</g></g><g transform="translate(88,120) scale(0.08,0.08)"><g transform="" style="fill: white;">
<rect width="100" height="100"/>
</g></g><g transform="translate(120,120) scale(0.08,0.08)"><g transform="" style="fill: white;">
<rect width="100" height="100"/>
</g></g><g transform="translate(128,120) scale(0.08,0.08)"><g transform="" style="fill: white;">
<rect width="100" height="100"/>
</g></g><g transform="translate(184,120) scale(0.08,0.08)"><g transform="" style="fill: white;">
<rect width="100" height="100"/>
</g></g><g transform="translate(192,120) scale(0.08,0.08)"><g transform="" style="fill: white;">
<rect width="100" height="100"/>
</g></g><g transform="translate(0,128) scale(0.08,0.08)"><g transform="" style="fill: white;">
<rect width="100" height="100"/>
</g></g><g transform="translate(8,128) scale(0.08,0.08)"><g transform="" style="fill: white;">
<rect width="100" height="100"/>
</g></g><g transform="translate(32,128) scale(0.08,0.08)"><g transform="" style="fill: white;">
<rect width="100" height="100"/>
</g></g><g transform="translate(48,128) scale(0.08,0.08)"><g transform="" style="fill: white;">
<rect width="100" height="100"/>
</g></g><g transform="translate(72,128) scale(0.08,0.08)"><g transform="" style="fill: white;">
<rect width="100" height="100"/>
</g></g><g transform="translate(80,128) scale(0.08,0.08)"><g transform="" style="fill: white;">
<rect width="100" height="100"/>
</g></g><g transform="translate(88,128) scale(0.08,0.08)"><g transform="" style="fill: white;">
<rect width="100" height="100"/>
</g></g><g transform="translate(112,128) scale(0.08,0.08)"><g transform="" style="fill: white;">
<rect width="100" height="100"/>
</g></g><g transform="translate(120,128) scale(0.08,0.08)"><g transform="" style="fill: white;">
<rect width="100" height="100"/>
</g></g><g transform="translate(128,128) scale(0.08,0.08)"><g transform="" style="fill: white;">
<rect width="100" height="100"/>
</g></g><g transform="translate(136,128) scale(0.08,0.08)"><g transform="" style="fill: white;">
<rect width="100" height="100"/>
</g></g><g transform="translate(144,128) scale(0.08,0.08)"><g transform="" style="fill: white;">
<rect width="100" height="100"/>
</g></g><g transform="translate(152,128) scale(0.08,0.08)"><g transform="" style="fill: white;">
<rect width="100" height="100"/>
</g></g><g transform="translate(160,128) scale(0.08,0.08)"><g transform="" style="fill: white;">
<rect width="100" height="100"/>
</g></g><g transform="translate(168,128) scale(0.08,0.08)"><g transform="" style="fill: white;">
<rect width="100" height="100"/>
</g></g><g transform="translate(176,128) scale(0.08,0.08)"><g transform="" style="fill: white;">
<rect width="100" height="100"/>
</g></g><g transform="translate(184,128) scale(0.08,0.08)"><g transform="" style="fill: white;">
<rect width="100" height="100"/>
</g></g><g transform="translate(192,128) scale(0.08,0.08)"><g transform="" style="fill: white;">
<rect width="100" height="100"/>
</g></g><g transform="translate(64,136) scale(0.08,0.08)"><g transform="" style="fill: white;">
<rect width="100" height="100"/>
</g></g><g transform="translate(72,136) scale(0.08,0.08)"><g transform="" style="fill: white;">
<rect width="100" height="100"/>
</g></g><g transform="translate(80,136) scale(0.08,0.08)"><g transform="" style="fill: white;">
<rect width="100" height="100"/>
</g></g><g transform="translate(88,136) scale(0.08,0.08)"><g transform="" style="fill: white;">
<rect width="100" height="100"/>
</g></g><g transform="translate(96,136) scale(0.08,0.08)"><g transform="" style="fill: white;">
<rect width="100" height="100"/>
</g></g><g transform="translate(112,136) scale(0.08,0.08)"><g transform="" style="fill: white;">
<rect width="100" height="100"/>
</g></g><g transform="translate(128,136) scale(0.08,0.08)"><g transform="" style="fill: white;">
<rect width="100" height="100"/>
</g></g><g transform="translate(160,136) scale(0.08,0.08)"><g transform="" style="fill: white;">
<rect width="100" height="100"/>
</g></g><g transform="translate(168,136) scale(0.08,0.08)"><g transform="" style="fill: white;">
<rect width="100" height="100"/>
</g></g><g transform="translate(176,136) scale(0.08,0.08)"><g transform="" style="fill: white;">
<rect width="100" height="100"/>
</g></g><g transform="translate(80,144) scale(0.08,0.08)"><g transform="" style="fill: white;">
<rect width="100" height="100"/>
</g></g><g transform="translate(88,144) scale(0.08,0.08)"><g transform="" style="fill: white;">
<rect width="100" height="100"/>
</g></g><g transform="translate(96,144) scale(0.08,0.08)"><g transform="" style="fill: white;">
<rect width="100" height="100"/>
</g></g><g transform="translate(104,144) scale(0.08,0.08)"><g transform="" style="fill: white;">
<rect width="100" height="100"/>
</g></g><g transform="translate(120,144) scale(0.08,0.08)"><g transform="" style="fill: white;">
<rect width="100" height="100"/>
</g></g><g transform="translate(128,144) scale(0.08,0.08)"><g transform="" style="fill: white;">
<rect width="100" height="100"/>
</g></g><g transform="translate(144,144) scale(0.08,0.08)"><g transform="" style="fill: white;">
<rect width="100" height="100"/>
</g></g><g transform="translate(160,144) scale(0.08,0.08)"><g transform="" style="fill: white;">
<rect width="100" height="100"/>
</g></g><g transform="translate(168,144) scale(0.08,0.08)"><g transform="" style="fill: white;">
<rect width="100" height="100"/>
</g></g><g transform="translate(184,144) scale(0.08,0.08)"><g transform="" style="fill: white;">
<rect width="100" height="100"/>
</g></g><g transform="translate(192,144) scale(0.08,0.08)"><g transform="" style="fill: white;">
<rect width="100" height="100"/>
</g></g><g transform="translate(80,152) scale(0.08,0.08)"><g transform="" style="fill: white;">
<rect width="100" height="100"/>
</g></g><g transform="translate(112,152) scale(0.08,0.08)"><g transform="" style="fill: white;">
<rect width="100" height="100"/>
</g></g><g transform="translate(128,152) scale(0.08,0.08)"><g transform="" style="fill: white;">
<rect width="100" height="100"/>
</g></g><g transform="translate(160,152) scale(0.08,0.08)"><g transform="" style="fill: white;">
<rect width="100" height="100"/>
</g></g><g transform="translate(176,152) scale(0.08,0.08)"><g transform="" style="fill: white;">
<rect width="100" height="100"/>
</g></g><g transform="translate(184,152) scale(0.08,0.08)"><g transform="" style="fill: white;">
<rect width="100" height="100"/>
</g></g><g transform="translate(192,152) scale(0.08,0.08)"><g transform="" style="fill: white;">
<rect width="100" height="100"/>
</g></g><g transform="translate(72,160) scale(0.08,0.08)"><g transform="" style="fill: white;">
<rect width="100" height="100"/>
</g></g><g transform="translate(88,160) scale(0.08,0.08)"><g transform="" style="fill: white;">
<rect width="100" height="100"/>
</g></g><g transform="translate(112,160) scale(0.08,0.08)"><g transform="" style="fill: white;">
<rect width="100" height="100"/>
</g></g><g transform="translate(128,160) scale(0.08,0.08)"><g transform="" style="fill: white;">
<rect width="100" height="100"/>
</g></g><g transform="translate(136,160) scale(0.08,0.08)"><g transform="" style="fill: white;">
<rect width="100" height="100"/>
</g></g><g transform="translate(144,160) scale(0.08,0.08)"><g transform="" style="fill: white;">
<rect width="100" height="100"/>
</g></g><g transform="translate(152,160) scale(0.08,0.08)"><g transform="" style="fill: white;">
<rect width="100" height="100"/>
</g></g><g transform="translate(160,160) scale(0.08,0.08)"><g transform="" style="fill: white;">
<rect width="100" height="100"/>
</g></g><g transform="translate(176,160) scale(0.08,0.08)"><g transform="" style="fill: white;">
<rect width="100" height="100"/>
</g></g><g transform="translate(64,168) scale(0.08,0.08)"><g transform="" style="fill: white;">
<rect width="100" height="100"/>
</g></g><g transform="translate(72,168) scale(0.08,0.08)"><g transform="" style="fill: white;">
<rect width="100" height="100"/>
</g></g><g transform="translate(80,168) scale(0.08,0.08)"><g transform="" style="fill: white;">
<rect width="100" height="100"/>
</g></g><g transform="translate(88,168) scale(0.08,0.08)"><g transform="" style="fill: white;">
<rect width="100" height="100"/>
</g></g><g transform="translate(104,168) scale(0.08,0.08)"><g transform="" style="fill: white;">
<rect width="100" height="100"/>
</g></g><g transform="translate(112,168) scale(0.08,0.08)"><g transform="" style="fill: white;">
<rect width="100" height="100"/>
</g></g><g transform="translate(120,168) scale(0.08,0.08)"><g transform="" style="fill: white;">
<rect width="100" height="100"/>
</g></g><g transform="translate(184,168) scale(0.08,0.08)"><g transform="" style="fill: white;">
<rect width="100" height="100"/>
</g></g><g transform="translate(80,176) scale(0.08,0.08)"><g transform="" style="fill: white;">
<rect width="100" height="100"/>
</g></g><g transform="translate(112,176) scale(0.08,0.08)"><g transform="" style="fill: white;">
<rect width="100" height="100"/>
</g></g><g transform="translate(120,176) scale(0.08,0.08)"><g transform="" style="fill: white;">
<rect width="100" height="100"/>
</g></g><g transform="translate(144,176) scale(0.08,0.08)"><g transform="" style="fill: white;">
<rect width="100" height="100"/>
</g></g><g transform="translate(160,176) scale(0.08,0.08)"><g transform="" style="fill: white;">
<rect width="100" height="100"/>
</g></g><g transform="translate(176,176) scale(0.08,0.08)"><g transform="" style="fill: white;">
<rect width="100" height="100"/>
</g></g><g transform="translate(192,176) scale(0.08,0.08)"><g transform="" style="fill: white;">
<rect width="100" height="100"/>
</g></g><g transform="translate(72,184) scale(0.08,0.08)"><g transform="" style="fill: white;">
<rect width="100" height="100"/>
</g></g><g transform="translate(80,184) scale(0.08,0.08)"><g transform="" style="fill: white;">
<rect width="100" height="100"/>
</g></g><g transform="translate(88,184) scale(0.08,0.08)"><g transform="" style="fill: white;">
<rect width="100" height="100"/>
</g></g><g transform="translate(104,184) scale(0.08,0.08)"><g transform="" style="fill: white;">
<rect width="100" height="100"/>
</g></g><g transform="translate(112,184) scale(0.08,0.08)"><g transform="" style="fill: white;">
<rect width="100" height="100"/>
</g></g><g transform="translate(144,184) scale(0.08,0.08)"><g transform="" style="fill: white;">
<rect width="100" height="100"/>
</g></g><g transform="translate(72,192) scale(0.08,0.08)"><g transform="" style="fill: white;">
<rect width="100" height="100"/>
</g></g><g transform="translate(88,192) scale(0.08,0.08)"><g transform="" style="fill: white;">
<rect width="100" height="100"/>
</g></g><g transform="translate(96,192) scale(0.08,0.08)"><g transform="" style="fill: white;">
<rect width="100" height="100"/>
</g></g><g transform="translate(112,192) scale(0.08,0.08)"><g transform="" style="fill: white;">
<rect width="100" height="100"/>
</g></g><g transform="translate(120,192) scale(0.08,0.08)"><g transform="" style="fill: white;">
<rect width="100" height="100"/>
</g></g><g transform="translate(128,192) scale(0.08,0.08)"><g transform="" style="fill: white;">
<rect width="100" height="100"/>
</g></g><g transform="translate(136,192) scale(0.08,0.08)"><g transform="" style="fill: white;">
<rect width="100" height="100"/>
</g></g><g transform="translate(144,192) scale(0.08,0.08)"><g transform="" style="fill: white;">
<rect width="100" height="100"/>
</g></g><g transform="translate(152,192) scale(0.08,0.08)"><g transform="" style="fill: white;">
<rect width="100" height="100"/>
</g></g><g transform="translate(176,192) scale(0.08,0.08)"><g transform="" style="fill: white;">
<rect width="100" height="100"/>
</g></g><g transform="translate(184,192) scale(0.08,0.08)"><g transform="" style="fill: white;">
<rect width="100" height="100"/>
</g></g><g transform="translate(192,192) scale(0.08,0.08)"><g transform="" style="fill: white;">
<rect width="100" height="100"/>
</g></g><g transform="translate(0,0) scale(0.56, 0.56)"><g transform="" style="fill: white;">
<g>
	<rect x="15" y="15" style="fill:none;" width="70" height="70"/>
	<path d="M85,0H15H0v15v70v15h15h70h15V85V15V0H85z M85,85H15V15h70V85z"/>
</g>
</g></g><g transform="translate(144,0) scale(0.56, 0.56)"><g transform="" style="fill: white;">
<g>
	<rect x="15" y="15" style="fill:none;" width="70" height="70"/>
	<path d="M85,0H15H0v15v70v15h15h70h15V85V15V0H85z M85,85H15V15h70V85z"/>
</g>
</g></g><g transform="translate(0,144) scale(0.56, 0.56)"><g transform="" style="fill: white;">
<g>
	<rect x="15" y="15" style="fill:none;" width="70" height="70"/>
	<path d="M85,0H15H0v15v70v15h15h70h15V85V15V0H85z M85,85H15V15h70V85z"/>
</g>
</g></g><g transform="translate(16,16) scale(0.24, 0.24)"><g transform="" style="fill: white;">
<rect width="100" height="100"/>
</g></g><g transform="translate(160,16) scale(0.24, 0.24)"><g transform="" style="fill: white;">
<rect width="100" height="100"/>
</g></g><g transform="translate(16,160) scale(0.24, 0.24)"><g transform="" style="fill: white;">
<rect width="100" height="100"/>
</g></g><g transform="translate(72,72) scale(0.1234067309557,0.1234067309557)" width="56" height="56"><svg version="1.1" id="Capa_1" xmlns="http://www.w3.org/2000/svg" xmlns:xlink="http://www.w3.org/1999/xlink" x="0px" y="0px"
	 width="453.784px" height="453.784px" viewBox="0 0 453.784 453.784" style="enable-background:new 0 0 453.784 453.784;"
	 xml:space="preserve">
<g>
	<g>
		<path d="M438.289,51.047c-0.421,0.146-44.14,13.428-85.057,13.428c-22.514,0-39.387-3.935-50.165-11.706
			c-14.923-10.749-36.503-16.202-64.13-16.202c-44.46,0-90.165,13.896-92.091,14.48l-8.437,2.592V256.47l15.676-5.138
			c0.356-0.117,36.789-11.864,77.601-11.864c23.296,0,43.275,3.818,59.343,11.339c19.279,9.003,42.634,13.58,69.491,13.58
			c44.571,0,83.397-12.518,85.032-13.055l8.232-2.686V46.288L438.289,51.047z M429.857,230.967
			c-13.078,3.457-40.099,9.505-69.361,9.505c-23.297,0-43.275-3.807-59.344-11.327c-19.278-9.009-42.645-13.592-69.49-13.592
			c-27.979,0-53.691,4.928-69.362,8.734V71.575c14.754-3.848,46.522-11.093,76.614-11.093c22.513,0,39.399,3.935,50.165,11.706
			c14.924,10.749,36.503,16.202,64.131,16.202c29.286,0,59.133-6.037,76.625-10.305v152.882H429.857z"/>
		<path d="M112.101,48.571c6.037-5.021,9.96-12.506,9.96-20.972c0-15.128-12.267-27.395-27.406-27.395
			c-15.127,0-27.395,12.267-27.395,27.395c0,8.478,3.935,15.962,9.972,20.984v352.683H0v52.313h406.55v-52.313H112.101V48.571z"/>
	</g>
</g>
<g>
</g>
<g>
</g>
<g>
</g>
<g>
</g>
<g>
</g>
<g>
</g>
<g>
</g>
<g>
</g>
<g>
</g>
<g>
</g>
<g>
</g>
<g>
</g>
<g>
</g>
<g>
</g>
<g>
</g>
</svg>
</g></g></svg>